<svg width="185" height="58" viewBox="0 0 185 58" fill="none" xmlns="http://www.w3.org/2000/svg">
<path d="M107.008 15.5428L100.42 40.8148H92.968L88.936 24.1828L84.76 40.8148H77.308L70.9 15.5428H77.488L81.124 33.9388L85.624 15.5428H92.392L96.712 33.9388L100.384 15.5428H107.008ZM116.251 15.5428V40.8148H110.095V15.5428H116.251ZM139.972 23.6788C139.972 25.1428 139.636 26.4868 138.964 27.7108C138.292 28.9108 137.26 29.8828 135.868 30.6268C134.476 31.3708 132.748 31.7428 130.684 31.7428H126.868V40.8148H120.712V15.5428H130.684C132.7 15.5428 134.404 15.8908 135.796 16.5868C137.188 17.2828 138.232 18.2428 138.928 19.4668C139.624 20.6908 139.972 22.0948 139.972 23.6788ZM130.216 26.8468C131.392 26.8468 132.268 26.5708 132.844 26.0188C133.42 25.4668 133.708 24.6868 133.708 23.6788C133.708 22.6708 133.42 21.8908 132.844 21.3388C132.268 20.7868 131.392 20.5108 130.216 20.5108H126.868V26.8468H130.216ZM149.333 15.5428V40.8148H143.177V15.5428H149.333ZM173.055 23.6788C173.055 25.1428 172.719 26.4868 172.047 27.7108C171.375 28.9108 170.343 29.8828 168.951 30.6268C167.559 31.3708 165.831 31.7428 163.767 31.7428H159.951V40.8148H153.795V15.5428H163.767C165.783 15.5428 167.487 15.8908 168.879 16.5868C170.271 17.2828 171.315 18.2428 172.011 19.4668C172.707 20.6908 173.055 22.0948 173.055 23.6788ZM163.299 26.8468C164.475 26.8468 165.351 26.5708 165.927 26.0188C166.503 25.4668 166.791 24.6868 166.791 23.6788C166.791 22.6708 166.503 21.8908 165.927 21.3388C165.351 20.7868 164.475 20.5108 163.299 20.5108H159.951V26.8468H163.299Z" fill="#29305B"/>
<rect y="2.8642" width="52" height="53.284" rx="6" fill="#5A6ACE"/>
<path d="M43.0764 16.5675L36.4884 41.8395H29.0364L25.0044 25.2075L20.8284 41.8395H13.3764L6.96836 16.5675H13.5564L17.1924 34.9635L21.6924 16.5675H28.4604L32.7804 34.9635L36.4524 16.5675H43.0764Z" fill="white"/>
</svg>
